<?xml version="1.0" standalone="no"?>
<!DOCTYPE svg PUBLIC "-//W3C//DTD SVG 20010904//EN"
 "http://www.w3.org/TR/2001/REC-SVG-20010904/DTD/svg10.dtd">
<svg version="1.0" xmlns="http://www.w3.org/2000/svg"
 width="3000.000000pt" height="328.000000pt" viewBox="0 0 3000.000000 328.000000"
 preserveAspectRatio="xMidYMid meet">

<g transform="translate(0.000000,328.000000) scale(0.100000,-0.100000)"
fill="#000000" stroke="none">
<path d="M7820 2720 c-199 -21 -378 -127 -509 -300 -153 -203 -212 -397 -212
-690 0 -225 32 -383 108 -535 131 -261 342 -408 621 -435 306 -29 535 76 637
292 71 149 98 345 55 388 -23 23 -30 24 -53 8 -12 -9 -22 -43 -32 -110 -36
-241 -152 -400 -329 -453 -74 -22 -214 -19 -288 6 -207 69 -346 297 -387 634
-6 50 -11 161 -11 247 0 436 102 704 307 804 53 27 67 29 168 29 102 0 114 -2
170 -30 75 -38 153 -115 198 -197 37 -66 77 -183 77 -223 0 -35 18 -40 30 -10
24 62 118 258 177 369 36 65 62 120 60 122 -2 2 -24 -5 -48 -16 -74 -33 -147
-27 -291 24 -192 68 -319 90 -448 76z"/>
<path d="M17430 2720 c-199 -21 -378 -127 -509 -300 -153 -203 -212 -397 -212
-690 0 -225 32 -383 108 -535 131 -261 342 -408 621 -435 306 -29 535 76 637
292 71 149 98 345 55 388 -23 23 -30 24 -53 8 -12 -9 -22 -43 -32 -110 -36
-241 -152 -400 -329 -453 -74 -22 -214 -19 -288 6 -207 69 -346 297 -387 634
-6 50 -11 161 -11 247 0 436 102 704 307 804 53 27 67 29 168 29 102 0 114 -2
170 -30 75 -38 153 -115 198 -197 37 -66 77 -183 77 -223 0 -35 18 -40 30 -10
24 62 118 258 177 369 36 65 62 120 60 122 -2 2 -24 -5 -48 -16 -74 -33 -147
-27 -291 24 -192 68 -319 90 -448 76z"/>
<path d="M12556 2699 c-249 -29 -440 -186 -485 -397 -15 -73 -14 -175 4 -250
50 -213 203 -326 532 -392 148 -30 302 -75 378 -109 82 -37 166 -117 202 -190
24 -49 28 -68 28 -146 0 -108 -19 -158 -86 -223 -82 -80 -183 -112 -352 -112
-184 0 -318 49 -423 154 -71 71 -109 140 -139 249 -11 43 -25 79 -29 80 -4 1
-23 -38 -40 -88 -38 -105 -86 -203 -163 -333 -31 -51 -53 -95 -51 -98 3 -2 31
8 63 22 53 25 65 26 154 21 62 -3 148 -18 241 -42 189 -47 225 -54 348 -65
176 -16 324 13 447 88 354 214 365 704 21 911 -89 53 -168 81 -378 132 -227
56 -307 84 -383 134 -129 86 -171 243 -99 375 33 60 77 100 154 138 104 51
296 41 400 -21 112 -66 164 -133 207 -264 15 -46 30 -83 34 -83 6 0 31 54 121
265 19 44 51 107 72 139 20 32 35 60 33 62 -2 3 -24 -5 -48 -16 -62 -28 -142
-25 -284 9 -204 49 -355 65 -479 50z"/>
<path d="M28326 2699 c-249 -29 -440 -186 -485 -397 -15 -73 -14 -175 4 -250
50 -213 203 -326 532 -392 148 -30 302 -75 378 -109 82 -37 166 -117 202 -190
24 -49 28 -68 28 -146 0 -108 -19 -158 -86 -223 -82 -80 -183 -112 -352 -112
-184 0 -318 49 -423 154 -71 71 -109 140 -139 249 -11 43 -25 79 -29 80 -4 1
-23 -38 -40 -88 -50 -138 -197 -415 -221 -415 -27 1 -245 298 -245 335 0 7 -9
15 -20 18 -19 5 -19 3 -5 -30 37 -88 130 -219 227 -319 l49 -51 -22 -46 -23
-47 -803 0 c-801 0 -804 0 -793 -20 11 -20 21 -20 808 -20 l797 0 35 64 c29
55 32 66 21 80 -12 14 -6 19 44 42 53 25 65 26 154 21 62 -3 148 -18 241 -42
189 -47 225 -54 348 -65 176 -16 324 13 447 88 354 214 365 704 21 911 -89 53
-168 81 -378 132 -227 56 -307 84 -383 134 -129 86 -171 243 -99 375 33 60 77
100 154 138 104 51 296 41 400 -21 112 -66 164 -133 207 -264 15 -46 30 -83
34 -83 6 0 31 54 121 265 19 44 51 107 72 139 20 32 35 60 33 62 -2 3 -24 -5
-48 -16 -62 -28 -142 -25 -284 9 -204 49 -355 65 -479 50z"/>
<path d="M3275 2690 c-405 -44 -674 -363 -703 -832 -19 -306 32 -543 156 -724
53 -79 174 -193 258 -242 178 -105 424 -135 624 -76 187 55 352 206 445 408
135 290 124 761 -24 1055 -150 298 -425 447 -756 411z m267 -142 c139 -64 215
-181 260 -398 28 -140 36 -519 14 -690 -37 -275 -136 -459 -286 -529 -50 -23
-67 -26 -175 -26 -115 0 -123 1 -186 32 -148 73 -239 234 -280 498 -16 102
-16 454 0 565 36 255 118 429 238 512 75 51 143 68 258 65 83 -2 110 -7 157
-29z"/>
<path d="M3339 2470 c-192 -33 -306 -206 -348 -529 -16 -122 -14 -428 4 -544
27 -179 78 -291 176 -390 70 -70 93 -76 28 -7 -60 63 -113 173 -143 292 -48
186 -56 478 -21 703 35 220 108 358 222 415 92 47 250 38 368 -22 l40 -21 -20
23 c-31 34 -106 68 -176 80 -35 5 -68 9 -74 9 -5 -1 -31 -5 -56 -9z"/>
<path d="M780 2676 c0 -2 41 -38 90 -80 l90 -76 0 -643 c0 -385 -4 -676 -10
-725 -21 -165 -74 -249 -198 -315 l-67 -36 330 -1 331 0 39 -40 39 -40 -367 0
c-365 0 -367 0 -355 -20 12 -19 24 -20 402 -20 l389 0 -55 62 c-42 48 -69 68
-113 86 -78 31 -140 75 -175 123 -66 91 -82 289 -78 944 l3 480 40 -75 40 -75
5 -560 c5 -540 6 -562 27 -623 25 -74 64 -134 102 -158 l26 -17 -27 29 c-48
52 -79 136 -89 242 -10 119 -12 1008 -1 998 4 -4 161 -305 349 -669 l341 -662
121 -3 121 -3 0 746 c0 641 2 757 16 822 28 136 69 193 194 272 l65 41 -315 0
-315 0 60 -38 c75 -48 130 -109 144 -159 24 -83 31 -255 29 -658 l-3 -420
-142 278 c-79 152 -206 400 -283 551 l-140 273 80 53 c88 58 106 75 91 85 -6
3 -56 -24 -111 -62 l-99 -67 98 -191 c54 -104 191 -371 305 -591 l206 -402 0
-88 c0 -75 -2 -86 -13 -74 -16 17 -710 1371 -705 1375 2 1 48 32 103 69 l100
66 -358 0 c-196 0 -357 -2 -357 -4z"/>
<path d="M4300 2675 c0 -3 23 -51 51 -107 28 -56 70 -152 94 -213 23 -60 46
-119 50 -130 6 -15 10 -6 16 38 20 144 62 215 153 262 57 29 66 30 208 34
l148 3 0 -47 0 -47 -57 4 c-79 7 -185 -7 -232 -31 -73 -38 -117 -115 -136
-238 -5 -34 -4 -43 8 -43 9 0 18 21 26 68 20 114 70 177 160 202 20 5 80 10
134 10 l97 0 0 -737 0 -738 -86 -70 c-47 -38 -90 -76 -96 -82 -8 -10 55 -13
313 -13 l324 0 -82 76 -83 76 0 803 c0 723 2 803 16 809 32 12 230 6 280 -9
95 -28 159 -104 200 -240 10 -33 21 -64 24 -68 4 -4 21 32 38 80 28 76 93 204
164 321 l20 32 -876 0 c-482 0 -876 -2 -876 -5z"/>
<path d="M6180 2667 c8 -8 54 -49 103 -92 l87 -78 -1 -766 0 -766 -101 -83
-100 -82 331 0 c182 0 331 1 331 3 0 2 -40 36 -90 77 l-90 74 0 763 0 764 97
100 96 99 -339 0 c-281 0 -336 -2 -324 -13z"/>
<path d="M8840 2667 c8 -8 54 -49 103 -92 l87 -78 -1 -766 0 -766 -101 -83
-100 -82 331 0 c182 0 331 1 331 3 0 2 -40 36 -90 77 l-90 74 0 763 0 764 97
100 96 99 -339 0 c-281 0 -336 -2 -324 -13z"/>
<path d="M10476 2628 c27 -29 62 -67 77 -84 l28 -31 -96 -264 c-52 -145 -97
-270 -100 -277 -3 -9 -28 6 -75 44 -50 40 -75 54 -87 49 -15 -5 -10 -14 32
-48 115 -97 110 -91 96 -126 -8 -17 -19 -31 -25 -31 -7 0 -45 31 -86 68 l-74
68 -58 -116 c-32 -63 -58 -115 -58 -116 0 0 26 -6 58 -13 66 -15 152 -58 152
-77 0 -37 -116 -347 -171 -457 -78 -155 -199 -293 -329 -376 l-65 -41 353 0
353 0 -60 71 c-89 106 -96 125 -95 249 0 101 3 112 63 293 34 103 66 187 71
187 12 0 60 -59 60 -73 0 -7 -16 -53 -34 -103 -53 -139 -78 -248 -78 -339 0
-115 27 -177 134 -306 21 -26 38 -50 38 -53 0 -3 -164 -6 -365 -6 -201 0 -365
-4 -365 -8 0 -30 29 -32 412 -32 l388 0 -85 112 c-47 62 -94 136 -105 165 -27
71 -26 185 0 289 23 89 79 242 91 250 9 5 86 -96 175 -229 31 -45 59 -82 64
-82 5 0 28 28 52 62 56 80 147 182 198 223 l40 31 16 -35 17 -35 -77 -83 c-93
-101 -190 -234 -181 -248 3 -6 33 26 65 71 74 105 190 233 200 222 10 -10 160
-405 160 -420 0 -5 -43 -46 -95 -89 l-94 -79 180 -3 c99 -1 260 -1 357 0 l177
3 -106 81 -105 81 -132 359 c-73 198 -132 362 -132 366 0 15 108 38 181 38
l78 0 -34 73 c-18 39 -43 105 -55 144 l-22 73 -59 -52 c-33 -28 -61 -49 -64
-46 -6 6 -205 535 -205 546 0 4 31 43 69 87 47 54 67 83 60 90 -10 10 -62 -41
-138 -135 l-29 -35 108 -287 107 -287 -24 -16 c-14 -9 -30 -14 -36 -12 -7 3
-65 147 -130 321 l-118 316 77 85 76 85 -333 0 -333 0 50 -52z m220 -312 l17
-53 -92 -243 -91 -242 68 -76 c79 -89 162 -199 162 -216 -1 -12 -49 -71 -54
-65 -53 75 -188 248 -225 289 l-49 55 116 307 c63 169 119 305 123 302 5 -2
16 -29 25 -58z m149 -389 l94 -256 -77 -80 -78 -80 -56 77 c-31 42 -79 103
-107 135 -28 32 -51 60 -51 62 0 2 32 88 71 192 40 103 76 199 81 213 13 34
11 38 123 -263z"/>
<path d="M15156 2628 c27 -29 62 -67 77 -84 l28 -31 -96 -264 c-52 -145 -97
-270 -100 -277 -3 -9 -28 6 -75 44 -50 40 -75 54 -87 49 -15 -5 -10 -14 32
-48 115 -97 110 -91 96 -126 -8 -17 -19 -31 -25 -31 -7 0 -45 31 -86 68 l-74
68 -58 -116 c-32 -63 -58 -115 -58 -116 0 0 26 -6 58 -13 66 -15 152 -58 152
-77 0 -37 -116 -347 -171 -457 -78 -155 -199 -293 -329 -376 l-65 -41 353 0
353 0 -60 71 c-89 106 -96 125 -95 249 0 101 3 112 63 293 34 103 66 187 71
187 12 0 60 -59 60 -73 0 -7 -16 -53 -34 -103 -53 -139 -78 -248 -78 -339 0
-115 27 -177 134 -306 21 -26 38 -50 38 -53 0 -3 -164 -6 -365 -6 -201 0 -365
-4 -365 -8 0 -30 29 -32 412 -32 l388 0 -85 112 c-47 62 -94 136 -105 165 -27
71 -26 185 0 289 23 89 79 242 91 250 9 5 86 -96 175 -229 31 -45 59 -82 64
-82 5 0 28 28 52 62 56 80 147 182 198 223 l40 31 16 -35 17 -35 -77 -83 c-93
-101 -190 -234 -181 -248 3 -6 33 26 65 71 74 105 190 233 200 222 10 -10 160
-405 160 -420 0 -5 -43 -46 -95 -89 l-94 -79 180 -3 c99 -1 260 -1 357 0 l177
3 -106 81 -105 81 -132 359 c-73 198 -132 362 -132 366 0 15 108 38 181 38
l78 0 -34 73 c-18 39 -43 105 -55 144 l-22 73 -59 -52 c-33 -28 -61 -49 -64
-46 -6 6 -205 535 -205 546 0 4 31 43 69 87 47 54 67 83 60 90 -10 10 -62 -41
-138 -135 l-29 -35 108 -287 107 -287 -24 -16 c-14 -9 -30 -14 -36 -12 -7 3
-65 147 -130 321 l-118 316 77 85 76 85 -333 0 -333 0 50 -52z m220 -312 l17
-53 -92 -243 -91 -242 68 -76 c79 -89 162 -199 162 -216 -1 -12 -49 -71 -54
-65 -53 75 -188 248 -225 289 l-49 55 116 307 c63 169 119 305 123 302 5 -2
16 -29 25 -58z m149 -389 l94 -256 -77 -80 -78 -80 -56 77 c-31 42 -79 103
-107 135 -28 32 -51 60 -51 62 0 2 32 88 71 192 40 103 76 199 81 213 13 34
11 38 123 -263z"/>
<path d="M18320 2675 c0 -3 23 -51 51 -107 28 -56 70 -152 94 -213 23 -60 46
-119 50 -130 6 -15 10 -6 16 38 20 144 62 215 153 262 57 29 66 30 208 34
l148 3 0 -47 0 -47 -57 4 c-79 7 -185 -7 -232 -31 -73 -38 -117 -115 -136
-238 -5 -34 -4 -43 8 -43 9 0 18 21 26 68 20 114 70 177 160 202 20 5 80 10
134 10 l97 0 0 -737 0 -738 -86 -70 c-47 -38 -90 -76 -96 -82 -8 -10 55 -13
313 -13 l324 0 -82 76 -83 76 0 803 c0 723 2 803 16 809 32 12 230 6 280 -9
95 -28 159 -104 200 -240 10 -33 21 -64 24 -68 4 -4 21 32 38 80 28 76 93 204
164 321 l20 32 -876 0 c-482 0 -876 -2 -876 -5z"/>
<path d="M20190 2667 c8 -7 52 -46 98 -87 l82 -73 0 -511 c0 -281 5 -566 10
-633 23 -300 89 -428 264 -513 111 -54 208 -72 386 -72 227 0 352 42 450 149
56 62 84 128 99 237 7 48 11 308 11 691 l0 613 130 104 129 103 -149 3 c-83 1
-218 1 -301 0 l-151 -3 112 -100 112 -100 -6 -580 c-6 -592 -11 -681 -46 -795
-25 -85 -65 -131 -148 -172 -66 -33 -68 -33 -212 -33 -170 0 -223 14 -293 75
-51 45 -81 108 -96 201 -7 39 -11 303 -11 689 l0 625 97 97 98 98 -340 0
c-282 0 -337 -2 -325 -13z"/>
<path d="M22736 2628 c27 -29 62 -67 77 -84 l28 -31 -96 -264 c-52 -145 -97
-270 -100 -277 -3 -9 -28 6 -75 44 -50 40 -75 54 -87 49 -15 -5 -10 -14 32
-48 115 -97 110 -91 96 -126 -8 -17 -19 -31 -25 -31 -7 0 -45 31 -86 68 l-74
68 -58 -116 c-32 -63 -58 -115 -58 -116 0 0 26 -6 58 -13 66 -15 152 -58 152
-77 0 -37 -116 -347 -171 -457 -78 -155 -199 -293 -329 -376 l-65 -41 353 0
353 0 -60 71 c-89 106 -96 125 -95 249 0 101 3 112 63 293 34 103 66 187 71
187 12 0 60 -59 60 -73 0 -7 -16 -53 -34 -103 -53 -139 -78 -248 -78 -339 0
-115 27 -177 134 -306 21 -26 38 -50 38 -53 0 -3 -164 -6 -365 -6 -201 0 -365
-4 -365 -8 0 -30 29 -32 412 -32 l388 0 -85 112 c-47 62 -94 136 -105 165 -27
71 -26 185 0 289 23 89 79 242 91 250 9 5 86 -96 175 -229 31 -45 59 -82 64
-82 5 0 28 28 52 62 56 80 147 182 198 223 l40 31 16 -35 17 -35 -77 -83 c-93
-101 -190 -234 -181 -248 3 -6 33 26 65 71 74 105 190 233 200 222 10 -10 160
-405 160 -420 0 -5 -43 -46 -95 -89 l-94 -79 180 -3 c99 -1 260 -1 357 0 l177
3 -106 81 -105 81 -132 359 c-73 198 -132 362 -132 366 0 15 108 38 181 38
l78 0 -34 73 c-18 39 -43 105 -55 144 l-22 73 -59 -52 c-33 -28 -61 -49 -64
-46 -6 6 -205 535 -205 546 0 4 31 43 69 87 47 54 67 83 60 90 -10 10 -62 -41
-138 -135 l-29 -35 108 -287 107 -287 -24 -16 c-14 -9 -30 -14 -36 -12 -7 3
-65 147 -130 321 l-118 316 77 85 76 85 -333 0 -333 0 50 -52z m220 -312 l17
-53 -92 -243 -91 -242 68 -76 c79 -89 162 -199 162 -216 -1 -12 -49 -71 -54
-65 -53 75 -188 248 -225 289 l-49 55 116 307 c63 169 119 305 123 302 5 -2
16 -29 25 -58z m149 -389 l94 -256 -77 -80 -78 -80 -56 77 c-31 42 -79 103
-107 135 -28 32 -51 60 -51 62 0 2 32 88 71 192 40 103 76 199 81 213 13 34
11 38 123 -263z"/>
<path d="M24354 2609 c43 -40 88 -81 101 -91 l25 -19 0 -763 0 -763 -92 -79
c-51 -42 -97 -81 -103 -86 -5 -4 332 -8 748 -8 l757 0 -35 46 c-71 92 -170
289 -214 426 -18 55 -27 54 -40 -6 -18 -79 -74 -189 -121 -236 -49 -49 -142
-95 -219 -110 -30 -5 -107 -10 -172 -10 l-119 0 0 768 0 768 70 69 c63 62 84
95 62 95 -4 0 -40 -33 -80 -73 l-72 -72 0 -771 c0 -424 -2 -773 -4 -775 -3 -3
-23 -3 -45 -1 l-41 4 0 782 0 781 102 97 103 97 -344 1 -343 0 76 -71z"/>
<path d="M25950 2676 c0 -2 47 -40 105 -85 l105 -82 0 -314 c0 -352 9 -317
-81 -330 -84 -11 -167 -80 -204 -168 l-15 -37 41 29 c58 43 140 71 205 71 l55
0 -3 -42 -3 -41 -61 -13 c-82 -16 -175 -60 -168 -79 5 -12 12 -11 42 4 46 23
138 51 169 51 l23 0 0 -327 0 -328 -86 -65 c-47 -36 -95 -73 -107 -82 -21 -17
19 -18 792 -18 l813 0 -67 71 c-103 110 -147 186 -189 326 l-22 73 -57 -100
c-73 -125 -141 -190 -229 -219 -84 -27 -196 -41 -329 -41 l-109 0 0 355 0 355
162 0 c160 0 161 0 143 20 -17 18 -31 20 -172 20 l-153 0 0 -375 0 -375 -55 0
-55 0 0 415 0 415 208 0 207 0 85 -117 85 -117 3 147 c1 81 1 213 0 294 l-3
147 -85 -117 -85 -117 -142 0 -143 0 0 279 0 279 75 7 c41 4 132 5 203 3 141
-5 148 -7 251 -83 58 -43 62 -44 42 -17 -31 44 -92 90 -143 108 -82 29 -285
38 -415 18 l-33 -5 0 -294 0 -295 -55 0 -55 0 0 341 0 341 248 -4 c200 -4 257
-8 301 -22 78 -25 149 -96 205 -204 36 -70 46 -83 51 -67 24 70 125 254 180
328 l65 87 -770 0 c-424 0 -770 -2 -770 -4z"/>
<path d="M3860 2603 c77 -56 136 -112 181 -171 223 -293 282 -826 133 -1199
-47 -118 -104 -203 -204 -304 -105 -106 -180 -154 -308 -197 -71 -24 -90 -26
-252 -26 -153 0 -183 3 -240 22 -78 26 -89 23 -21 -7 96 -41 161 -53 286 -52
298 0 525 130 689 393 214 345 218 914 9 1274 -52 90 -184 226 -254 262 -27
14 -34 16 -19 5z"/>
<path d="M6812 2537 l-82 -82 0 -754 0 -753 101 -112 102 -111 -353 -3 c-351
-2 -353 -2 -335 -22 17 -19 32 -20 392 -20 l374 0 -120 134 -121 134 0 753 0
754 72 72 c48 48 69 76 62 83 -6 6 -37 -18 -92 -73z"/>
<path d="M9472 2537 l-82 -82 0 -754 0 -753 101 -112 102 -111 -353 -3 c-351
-2 -353 -2 -335 -22 17 -19 32 -20 392 -20 l374 0 -120 134 -121 134 0 753 0
754 72 72 c48 48 69 76 62 83 -6 6 -37 -18 -92 -73z"/>
<path d="M20817 2542 l-78 -78 3 -630 c3 -563 6 -635 21 -688 23 -76 70 -141
127 -174 l45 -26 -57 61 c-31 33 -60 73 -64 89 -3 16 -15 63 -25 106 -18 70
-19 121 -19 663 l0 587 70 72 c64 66 83 96 62 96 -4 0 -42 -35 -85 -78z"/>
<path d="M6080 2565 c-36 -52 -127 -241 -159 -327 -16 -46 -18 -58 -7 -67 10
-9 19 5 41 62 42 109 109 247 148 305 28 41 33 53 22 62 -10 9 -20 1 -45 -35z"/>
<path d="M13322 2388 c-62 -123 -113 -226 -112 -230 0 -5 7 -8 15 -8 11 0 44
59 99 173 46 94 97 195 114 224 29 49 31 63 8 63 -6 0 -62 -100 -124 -222z"/>
<path d="M20100 2565 c-36 -52 -127 -241 -159 -327 -16 -46 -18 -58 -7 -67 10
-9 19 5 41 62 42 109 109 247 148 305 28 41 33 53 22 62 -10 9 -20 1 -45 -35z"/>
<path d="M27488 2533 c-103 -145 -196 -321 -183 -344 5 -6 32 36 65 99 31 60
87 153 125 207 41 60 64 100 58 106 -6 6 -30 -20 -65 -68z"/>
<path d="M29092 2388 c-62 -123 -113 -226 -112 -230 0 -5 7 -8 15 -8 11 0 44
59 99 173 46 94 97 195 114 224 29 49 31 63 8 63 -6 0 -62 -100 -124 -222z"/>
<path d="M21783 2518 l-103 -83 0 -460 c-1 -699 -16 -907 -76 -1033 -37 -77
-110 -146 -197 -187 -115 -55 -194 -68 -387 -62 -178 5 -270 23 -369 71 -29
14 -48 19 -42 12 16 -19 137 -73 206 -91 143 -38 383 -37 515 1 132 38 253
132 304 236 62 127 76 303 76 985 l0 512 95 78 c83 68 112 103 87 103 -4 0
-53 -37 -109 -82z"/>
<path d="M8613 2431 c-45 -80 -107 -197 -137 -259 -49 -98 -54 -113 -39 -119
10 -4 19 -1 21 7 11 31 154 313 206 404 31 54 56 100 56 101 0 2 -6 5 -13 8
-9 3 -41 -45 -94 -142z"/>
<path d="M18223 2431 c-45 -80 -107 -197 -137 -259 -49 -98 -54 -113 -39 -119
10 -4 19 -1 21 7 11 31 154 313 206 404 31 54 56 100 56 101 0 2 -6 5 -13 8
-9 3 -41 -45 -94 -142z"/>
<path d="M2386 2544 c-90 -33 -135 -91 -155 -199 -7 -39 -11 -319 -11 -842 l0
-783 -146 0 c-129 0 -145 -2 -140 -16 3 -9 6 -18 6 -20 0 -2 70 -4 155 -4
l154 0 3 837 3 838 26 56 c28 58 77 99 141 114 31 8 47 35 20 34 -9 0 -35 -7
-56 -15z"/>
<path d="M7869 2510 c-126 -22 -221 -112 -278 -264 -89 -240 -89 -695 0 -967
31 -95 85 -195 132 -246 45 -49 121 -103 146 -103 8 0 -5 13 -30 28 -122 78
-211 244 -256 482 -27 147 -25 528 5 665 41 190 128 321 239 359 102 35 237
13 334 -54 l34 -23 -30 32 c-64 69 -194 109 -296 91z"/>
<path d="M17479 2510 c-126 -22 -221 -112 -278 -264 -89 -240 -89 -695 0 -967
31 -95 85 -195 132 -246 45 -49 121 -103 146 -103 8 0 -5 13 -30 28 -122 78
-211 244 -256 482 -27 147 -25 528 5 665 41 190 128 321 239 359 102 35 237
13 334 -54 l34 -23 -30 32 c-64 69 -194 109 -296 91z"/>
<path d="M12571 2493 c-59 -21 -133 -96 -149 -149 -17 -59 -15 -132 7 -179 19
-43 81 -104 132 -130 27 -14 23 -8 -23 37 -73 71 -92 109 -92 183 0 138 100
225 257 225 115 0 212 -40 309 -128 l41 -37 -16 31 c-23 44 -91 102 -156 132
-47 22 -72 27 -161 29 -77 2 -117 -2 -149 -14z"/>
<path d="M28341 2493 c-59 -21 -133 -96 -149 -149 -17 -59 -15 -132 7 -179 19
-43 81 -104 132 -130 27 -14 23 -8 -23 37 -73 71 -92 109 -92 183 0 138 100
225 257 225 115 0 212 -40 309 -128 l41 -37 -16 31 c-23 44 -91 102 -156 132
-47 22 -72 27 -161 29 -77 2 -117 -2 -149 -14z"/>
<path d="M5390 1708 l0 -765 95 -109 95 -109 -345 -5 c-328 -5 -345 -6 -333
-23 12 -16 39 -17 380 -15 l367 3 -114 135 -115 135 0 739 0 739 103 -5 c69
-4 119 -12 155 -26 57 -22 67 -15 26 17 -36 28 -80 38 -206 46 l-108 7 0 -764z"/>
<path d="M19410 1708 l0 -765 95 -109 95 -109 -345 -5 c-328 -5 -345 -6 -333
-23 12 -16 39 -17 380 -15 l367 3 -114 135 -115 135 0 739 0 739 103 -5 c69
-4 119 -12 155 -26 57 -22 67 -15 26 17 -36 28 -80 38 -206 46 l-108 7 0 -764z"/>
<path d="M27100 1782 c0 -276 2 -321 15 -326 13 -5 15 32 13 316 -2 246 -6
322 -15 326 -10 3 -13 -65 -13 -316z"/>
<path d="M11490 1977 c0 -18 59 -167 94 -240 25 -50 44 -92 43 -94 -2 -1 -41
2 -87 7 -95 9 -180 3 -186 -14 -3 -7 53 -163 123 -347 l128 -336 129 -114 130
-114 -386 -5 c-367 -5 -386 -6 -374 -23 12 -16 42 -17 429 -15 l416 3 -159
140 -159 140 -117 308 c-64 170 -119 318 -121 328 -5 17 1 19 68 18 41 0 106
-4 144 -8 39 -5 71 -8 72 -7 1 1 -24 53 -56 117 -31 63 -66 142 -77 176 -10
34 -27 66 -36 72 -10 6 -18 10 -18 8z"/>
<path d="M16170 1977 c0 -18 59 -167 94 -240 25 -50 44 -92 43 -94 -2 -1 -41
2 -87 7 -95 9 -180 3 -186 -14 -3 -7 53 -163 123 -347 l128 -336 129 -114 130
-114 -386 -5 c-367 -5 -386 -6 -374 -23 12 -16 42 -17 429 -15 l416 3 -159
140 -159 140 -117 308 c-64 170 -119 318 -121 328 -5 17 1 19 68 18 41 0 106
-4 144 -8 39 -5 71 -8 72 -7 1 1 -24 53 -56 117 -31 63 -66 142 -77 176 -10
34 -27 66 -36 72 -10 6 -18 10 -18 8z"/>
<path d="M23750 1977 c0 -18 59 -167 94 -240 25 -50 44 -92 43 -94 -2 -1 -41
2 -87 7 -95 9 -180 3 -186 -14 -3 -7 53 -163 123 -347 l128 -336 129 -114 130
-114 -386 -5 c-367 -5 -386 -6 -374 -23 12 -16 42 -17 429 -15 l416 3 -159
140 -159 140 -117 308 c-64 170 -119 318 -121 328 -5 17 1 19 68 18 41 0 106
-4 144 -8 39 -5 71 -8 72 -7 1 1 -24 53 -56 117 -31 63 -66 142 -77 176 -10
34 -27 66 -36 72 -10 6 -18 10 -18 8z"/>
<path d="M12170 1763 c0 -5 11 -25 25 -45 49 -72 142 -110 460 -189 309 -77
370 -100 454 -168 46 -37 47 -31 3 28 -45 61 -171 106 -567 205 -77 19 -164
44 -193 55 -61 24 -128 67 -136 86 -6 16 -46 40 -46 28z"/>
<path d="M27940 1763 c0 -5 11 -25 25 -45 49 -72 142 -110 460 -189 309 -77
370 -100 454 -168 46 -37 47 -31 3 28 -45 61 -171 106 -567 205 -77 19 -164
44 -193 55 -61 24 -128 67 -136 86 -6 16 -46 40 -46 28z"/>
<path d="M13454 1637 c119 -178 123 -424 11 -612 -96 -160 -285 -291 -469
-324 -83 -15 -286 -13 -376 4 -41 7 -146 30 -234 50 -108 25 -185 37 -240 37
-93 1 -170 -18 -161 -40 3 -7 5 -15 5 -17 0 -2 21 3 46 12 77 26 227 13 424
-36 338 -85 569 -72 776 44 83 47 208 165 253 239 136 225 116 515 -45 676
-34 34 -34 33 10 -33z"/>
<path d="M29224 1637 c119 -178 123 -424 11 -612 -96 -160 -285 -291 -469
-324 -83 -15 -286 -13 -376 4 -41 7 -146 30 -234 50 -108 25 -185 37 -240 37
-93 1 -170 -18 -161 -40 3 -7 5 -15 5 -17 0 -2 21 3 46 12 77 26 227 13 424
-36 338 -85 569 -72 776 44 83 47 208 165 253 239 136 225 116 515 -45 676
-34 34 -34 33 10 -33z"/>
<path d="M8626 1312 c-10 -110 -41 -235 -79 -311 -41 -86 -167 -214 -254 -259
-171 -90 -457 -98 -653 -19 -70 29 -78 27 -18 -4 234 -120 546 -108 750 27
165 110 259 295 292 576 5 39 2 49 -13 57 -17 9 -19 4 -25 -67z"/>
<path d="M18236 1312 c-10 -110 -41 -235 -79 -311 -41 -86 -167 -214 -254
-259 -171 -90 -457 -98 -653 -19 -70 29 -78 27 -18 -4 234 -120 546 -108 750
27 165 110 259 295 292 576 5 39 2 49 -13 57 -17 9 -19 4 -25 -67z"/>
<path d="M12310 1285 c0 -8 11 -44 25 -80 43 -115 108 -191 205 -240 68 -35
74 -31 15 9 -96 65 -175 173 -204 284 -11 40 -41 60 -41 27z"/>
<path d="M28080 1285 c0 -8 11 -44 25 -80 43 -115 108 -191 205 -240 68 -35
74 -31 15 9 -96 65 -175 173 -204 284 -11 40 -41 60 -41 27z"/>
<path d="M25650 1254 c0 -3 18 -45 41 -93 46 -98 113 -210 175 -292 l42 -55
-20 -47 -21 -47 -775 0 c-774 0 -775 0 -757 -20 18 -20 31 -20 776 -20 l759 0
34 68 34 67 -25 30 c-40 50 -129 197 -182 302 -27 55 -57 103 -65 106 -9 4
-16 4 -16 1z"/>
</g>
</svg>
